<svg xmlns="http://www.w3.org/2000/svg" width="82" height="82"><g data-name="Group 18" transform="translate(11890 -7491)"><path data-name="Path 33" d="M-11836 7491h-26a28 28 0 00-28 28v26a28 28 0 0028 28h26a28 28 0 0028-28v-26a28 28 0 00-28-28z" fill="#ff4361" opacity=".102"/><g data-name="Group 17" fill="#f55767"><path data-name="Path 48" d="M-11851.001 7524.206v2.234a.53.53 0 00.809.449l7.306-4.545a.517.517 0 000-.886l-7.306-4.545a.532.532 0 00-.809.449v2.234h-16.848a12.416 12.416 0 1012.506 12.4 12.3 12.3 0 00-2.761-7.794zm-13.212 12.7a3.958 3.958 0 01-2.067 1.323.579.579 0 00-.5.655c.013.372 0 .732 0 1.1a.454.454 0 01-.488.514c-.4.013-.8.013-1.181 0a.474.474 0 01-.514-.539c0-.27 0-.539-.013-.809 0-.591-.026-.616-.591-.706a7.473 7.473 0 01-2.106-.6c-.526-.257-.578-.385-.424-.937.116-.411.218-.822.347-1.22.141-.475.27-.526.706-.308a6.758 6.758 0 002.337.706 2.9 2.9 0 001.541-.205 1.194 1.194 0 00.282-2.093 3.717 3.717 0 00-.873-.514 18.913 18.913 0 01-2.388-1.079 3.376 3.376 0 01-1.915-3.24 3.538 3.538 0 012.607-3.3c.642-.231.642-.218.642-.886v-.681c.013-.5.1-.591.6-.6h.462c1.066 0 1.066 0 1.066 1.066 0 .758 0 .758.758.873a6.178 6.178 0 011.656.5.477.477 0 01.308.642 28.31 28.31 0 01-.411 1.387c-.141.437-.282.5-.693.3a5.472 5.472 0 00-2.632-.526 2.229 2.229 0 00-.706.141 1 1 0 00-.244 1.772 4.755 4.755 0 001.143.642 20.176 20.176 0 012.08.937 3.739 3.739 0 011.209 5.684z"/><path data-name="Path 49" d="M-11830.225 7519.572a12.431 12.431 0 00-12.429 12.429 12.3 12.3 0 002.761 7.794h-7.113v-2.234a.53.53 0 00-.809-.449l-7.306 4.545a.517.517 0 000 .886l7.306 4.545a.532.532 0 00.809-.449v-2.234h16.859a12.417 12.417 0 00-.078-24.833zm4.918 19.555a9.376 9.376 0 01-1.31.475 8.753 8.753 0 01-5.136-.064 6.717 6.717 0 01-4.25-4.045c-.154-.385-.257-.783-.385-1.181h-1.618a.488.488 0 01-.488-.488v-1.091a.488.488 0 01.488-.488h1.335v-.886h-1.335a.488.488 0 01-.488-.488v-1.091a.488.488 0 01.488-.488h1.695l.051-.167a7.251 7.251 0 012.452-3.634 7.1 7.1 0 013.261-1.348 9.378 9.378 0 014.931.578 2.089 2.089 0 01.3.141.645.645 0 01.308.924c-.18.437-.36.86-.552 1.284a.617.617 0 01-.8.4c-.539-.128-1.066-.282-1.6-.4a5.784 5.784 0 00-3.364.193 3.517 3.517 0 00-1.926 2v.039h3.3a.488.488 0 01.488.488v1.091a.488.488 0 01-.488.488h-3.775v.886h3.788a.488.488 0 01.488.488v1.091a.488.488 0 01-.488.488h-3.454a3.632 3.632 0 002.363 2.517 6.111 6.111 0 003.082.09c.539-.116 1.053-.27 1.592-.4a.625.625 0 01.822.4c.193.424.385.86.552 1.3a.6.6 0 01-.33.898z"/></g><ellipse data-name="Ellipse 8" cx="9.5" cy="10" rx="9.5" ry="10" transform="translate(-11841 7522)" fill="#f55767"/><ellipse data-name="Ellipse 9" cx="9.5" cy="10" rx="9.5" ry="10" transform="translate(-11877 7523)" fill="#f55767"/><path d="M-11870.385 7532.679v2.713h-1.357v1.357h2.036v1.357h1.358v-1.355h1.357v1.357h1.357v-1.391a2.7 2.7 0 001.262-4.861 2.7 2.7 0 00-1.262-4.51v-1.454h-1.357v1.357h-1.357v-1.357h-1.358v1.357h-2.036v1.358h1.357zm4.412 2.713h-3.054v-2.713h3.054a1.357 1.357 0 010 2.715zm-3.054-6.785h2.715a1.357 1.357 0 010 2.715h-2.715zm44.832 3.12c0-.681-1.854-1.25-4.318-1.381v-1.086h3.076v-2.259h-8.411v2.259h3.078v1.091c-2.419.14-4.228.7-4.228 1.376s1.807 1.235 4.228 1.375v3.9h2.258v-3.894c2.463-.131 4.317-.7 4.317-1.381zm-5.4.671c-2.644 0-4.788-.409-4.788-.914 0-.428 1.537-.787 3.614-.887v1.312a21.024 21.024 0 002.259.005v-1.321c2.121.094 3.7.457 3.7.891.001.505-2.143.914-4.787.914z" fill="#e7d4d7"/></g></svg>